<?xml version="1.0" encoding="iso-8859-1"?>
<!-- Uploaded to: SVG Repo, www.svgrepo.com, Generator: SVG Repo Mixer Tools -->
<svg height="800px" width="800px" version="1.1" id="Layer_1" xmlns="http://www.w3.org/2000/svg" xmlns:xlink="http://www.w3.org/1999/xlink" 
	 viewBox="0 0 512 512" xml:space="preserve">
<path style="fill:#5B5D6E;" d="M397.239,211.863h-35.311v-70.621c0-58.415-47.518-105.932-105.932-105.932
	S150.065,82.829,150.065,141.242v70.621h-35.311v-70.621C114.754,63.363,178.117,0,255.997,0s141.242,63.363,141.242,141.242
	V211.863z"/>
<path style="fill:#707487;" d="M256,512L256,512c-87.757,0-158.898-71.141-158.898-158.898V220.688
	c0-14.626,11.857-26.483,26.483-26.483h264.829c14.626,0,26.483,11.857,26.483,26.483v132.415C414.898,440.859,343.757,512,256,512z
	"/>
<g>
	<path style="fill:#5B5D6E;" d="M282.483,326.62c0-16.209-14.56-29.015-31.315-26.055c-10.779,1.905-19.549,10.856-21.294,21.662
		c-1.993,12.339,4.588,23.293,14.658,28.165l-4.868,36.866c-0.698,5.289,3.417,9.983,8.751,9.983h15.17
		c5.334,0,9.45-4.695,8.752-9.983l-4.868-36.866C276.325,346.107,282.483,337.118,282.483,326.62z"/>
	<path style="fill:#5B5D6E;" d="M256,476.689c-68.147,0-123.587-55.44-123.587-123.587V238.343c0-4.879,3.953-8.828,8.828-8.828
		h229.519c4.875,0,8.828,3.948,8.828,8.828v114.759C379.587,421.25,324.147,476.689,256,476.689z M150.068,247.171v105.932
		c0,58.415,47.521,105.932,105.932,105.932s105.932-47.518,105.932-105.932V247.171L150.068,247.171L150.068,247.171z"/>
</g>
</svg>